<svg xmlns="http://www.w3.org/2000/svg" viewBox="0 0 391.93 117.13"><defs><style>.cls-1{fill:#1d1d1b;}.cls-2{fill:#e63323;}</style></defs><title>Ресурс 1</title><g id="Слой_2" data-name="Слой 2"><g id="Lag_1" data-name="Lag 1"><path class="cls-1" d="M0,55.56a13.61,13.61,0,0,1,1.64-5.22,13.79,13.79,0,0,1,3.29-4.15q9,5.42,16.6,5.42a7.74,7.74,0,0,0,5.38-1.68,5.31,5.31,0,0,0,1.85-4.07q0-4.11-5.51-6.58l-9.7-4.11q-11.67-5.09-11.67-15A15.28,15.28,0,0,1,7.56,7.89q5.67-4.76,14.92-4.77A39.38,39.38,0,0,1,40.76,7.81a14.2,14.2,0,0,1-4.27,9.45q-8.38-4-14.79-4a7.55,7.55,0,0,0-5.18,1.6,4.78,4.78,0,0,0-1.81,3.66q0,3.29,5.09,5.51l9.86,4.11a22.77,22.77,0,0,1,9.16,6.7,14.87,14.87,0,0,1,3.25,9.41,16,16,0,0,1-5.55,12.66Q31,61.72,20.63,61.72A37.41,37.41,0,0,1,10,60.07,38.09,38.09,0,0,1,0,55.56Z"/><path class="cls-1" d="M65.58,28.68v31.8a31.18,31.18,0,0,1-6,.49,35.25,35.25,0,0,1-6.25-.49V32.87q0-4.68-3.86-4.68H48.32a18.79,18.79,0,0,1,0-8.55q4.11-.41,7-.41H57a8.1,8.1,0,0,1,6.33,2.55A9.91,9.91,0,0,1,65.58,28.68ZM50.87,7.81a12.07,12.07,0,0,1,.9-4.6,12.77,12.77,0,0,1,6-1.23,11.31,11.31,0,0,1,5.79,1.23,12.17,12.17,0,0,1,0,9.2,11.83,11.83,0,0,1-6,1.23,10.89,10.89,0,0,1-5.83-1.23A12.07,12.07,0,0,1,50.87,7.81Z"/><path class="cls-1" d="M92.45,43.88,89.74,44V60.49a31.48,31.48,0,0,1-5.92.49,34.2,34.2,0,0,1-6.08-.49V.58L78.32,0h4.77q3.62,0,5.14,1.69T89.74,7.4V33.86h1.48a2.54,2.54,0,0,0,2.3-1.48l4.68-8.63a7.27,7.27,0,0,1,6.9-4.52q2.38,0,6.82.16l.49.66-6.66,12.49a12.86,12.86,0,0,1-4.11,4.6,11.6,11.6,0,0,1,7,7.15l2.05,6.08a33.94,33.94,0,0,0,2.1,4.85,6.43,6.43,0,0,0,1.85,2.05,10.34,10.34,0,0,1-8.22,3.86,5.74,5.74,0,0,1-4-1.23A10.5,10.5,0,0,1,100,55.56l-2.47-7.23a8.43,8.43,0,0,0-2.1-3.53A4.61,4.61,0,0,0,92.45,43.88Z"/><path class="cls-1" d="M137.24,43.88l-2.71.08V60.49a31.48,31.48,0,0,1-5.92.49,34.2,34.2,0,0,1-6.08-.49V.58L123.1,0h4.77q3.62,0,5.14,1.69t1.52,5.71V33.86H136a2.54,2.54,0,0,0,2.3-1.48L143,23.75a7.27,7.27,0,0,1,6.9-4.52q2.38,0,6.82.16l.49.66-6.66,12.49a12.86,12.86,0,0,1-4.11,4.6,11.6,11.6,0,0,1,7,7.15l2.05,6.08a33.94,33.94,0,0,0,2.1,4.85,6.43,6.43,0,0,0,1.85,2.05,10.34,10.34,0,0,1-8.22,3.86,5.74,5.74,0,0,1-4-1.23,10.5,10.5,0,0,1-2.42-4.36l-2.47-7.23a8.43,8.43,0,0,0-2.1-3.53A4.61,4.61,0,0,0,137.24,43.88Z"/><path class="cls-1" d="M199,44H177.26a10.75,10.75,0,0,0,2,6.12q1.73,2.18,6.08,2.18a27.3,27.3,0,0,0,10.36-2.55A12.87,12.87,0,0,1,199,57a27.27,27.27,0,0,1-16.11,4.68A20.23,20.23,0,0,1,174.14,60a13.28,13.28,0,0,1-5.67-4.89q-3.62-6-3.62-15.37t4.52-15.37q4.52-6,13.07-6t13.11,4.89a17.64,17.64,0,0,1,4.56,12.53A31.33,31.33,0,0,1,199,44ZM187.37,29.13a4.82,4.82,0,0,0-4.31-2.1,4.75,4.75,0,0,0-4.27,2.05q-1.36,2.05-1.6,6.41h11.59v-1A9.52,9.52,0,0,0,187.37,29.13Z"/><path class="cls-1" d="M207.83,25.23a11.11,11.11,0,0,1,1.48-3.53,10.38,10.38,0,0,1,2.3-2.79,11.29,11.29,0,0,1,10,7.39Q224.76,19,232,19a22,22,0,0,1,5.34.66,24.44,24.44,0,0,1-.82,5.71,21.49,21.49,0,0,1-2.22,5.71,16.83,16.83,0,0,0-4.11-.74q-4.36,0-7.07,4.44V60.49a31.18,31.18,0,0,1-6,.49,35.25,35.25,0,0,1-6.25-.49V33.7Q210.87,27.53,207.83,25.23Z"/><path class="cls-1" d="M270.95,19.48a19.44,19.44,0,0,1,0,8.71L261.08,28V47.67q0,3.86,3.62,3.86h4.77a16.86,16.86,0,0,1,1,5.26,11.61,11.61,0,0,1-.33,3.29,79.47,79.47,0,0,1-10.85.82q-10.11,0-10.11-11V28.11l-6.41.08a16.73,16.73,0,0,1-.49-4.36,16.76,16.76,0,0,1,.49-4.36l6.41.08v-5q0-4.11,1.48-5.75t5.09-1.64h4.77l.58.57V19.64Z"/><path class="cls-2" d="M301.43,49.89H316a28.94,28.94,0,0,1-.33,4.68q-1,6.16-8.22,6.16h-18.9a7.22,7.22,0,0,1-5.34-2,7.32,7.32,0,0,1-2-5.42v-49l.57-.49h4.6q7.4,0,7.4,7.89V50.13Q297.9,49.88,301.43,49.89Z"/><path class="cls-2" d="M336.85,28.68v31.8a31.2,31.2,0,0,1-6,.49,35.28,35.28,0,0,1-6.25-.49V32.87q0-4.68-3.86-4.68H319.6a18.72,18.72,0,0,1,0-8.55q4.11-.41,7-.41h1.64a8.1,8.1,0,0,1,6.33,2.55A9.91,9.91,0,0,1,336.85,28.68ZM322.14,7.81a12.07,12.07,0,0,1,.9-4.6,12.76,12.76,0,0,1,6-1.23,11.31,11.31,0,0,1,5.79,1.23,12.15,12.15,0,0,1,0,9.2,11.82,11.82,0,0,1-6,1.23q-3.95,0-5.83-1.23A12.07,12.07,0,0,1,322.14,7.81Z"/><path class="cls-1" d="M55.82,89.46l0,4.13v3.08q.54,0,1.52,0h6.83a6.36,6.36,0,0,1,.17,1.4,6.8,6.8,0,0,1-.17,1.44H57.38q-1,0-1.52,0v10.25a10.61,10.61,0,0,1-3.38,0V86.79l.24-.2H66a4.27,4.27,0,0,1,.2,1.35q0,1.56-1.93,1.56H59.17Q56.77,89.49,55.82,89.46Z"/><path class="cls-1" d="M81.46,94.43q2.37,2.4,2.37,6.92t-2.37,6.92a7.31,7.31,0,0,1-9.74,0q-2.37-2.4-2.37-6.92t2.37-6.92a7.31,7.31,0,0,1,9.74,0Zm-8.73,6.94q0,6.22,3.86,6.22t3.86-6.22a13.12,13.12,0,0,0-.32-3.08A4.93,4.93,0,0,0,78.91,96a3.31,3.31,0,0,0-4.63,0,4.93,4.93,0,0,0-1.22,2.27A13.12,13.12,0,0,0,72.73,101.37Z"/><path class="cls-1" d="M88,94.53a2.75,2.75,0,0,1,1.22-1.76,3.94,3.94,0,0,1,2.94,3,4.62,4.62,0,0,1,4.43-3,8.4,8.4,0,0,1,1.76.2,5.72,5.72,0,0,1-.78,3.08l-1.35-.13q-2.37,0-3.72,2.64v11.13a10,10,0,0,1-3.28,0V98A4.53,4.53,0,0,0,88,94.53Z"/><path class="cls-1" d="M100.51,108.44a3.4,3.4,0,0,1,.35-1.25,3.08,3.08,0,0,1,.76-1,10.09,10.09,0,0,0,4.48,1.52,4.29,4.29,0,0,0,2.55-.63,2,2,0,0,0,.88-1.61q0-1.56-2.2-2.4l-1.89-.74q-4.33-1.62-4.33-4.77a4.37,4.37,0,0,1,1.67-3.6,6.84,6.84,0,0,1,4.4-1.34,12.53,12.53,0,0,1,5.29,1.18,3.17,3.17,0,0,1-.25,1.35,2.73,2.73,0,0,1-.73,1.08,11.35,11.35,0,0,0-4.5-1.08,2.93,2.93,0,0,0-1.86.56,1.72,1.72,0,0,0-.71,1.4,1.74,1.74,0,0,0,.52,1.34,5.21,5.21,0,0,0,1.67.93l2,.74q4.26,1.66,4.26,5.07a4.32,4.32,0,0,1-1.78,3.62,7.73,7.73,0,0,1-4.8,1.35A11.15,11.15,0,0,1,100.51,108.44Z"/><path class="cls-1" d="M121.48,95.79v13.9a9.78,9.78,0,0,1-3.25,0V97.14a2.14,2.14,0,0,0-.32-1.32,1.37,1.37,0,0,0-1.13-.41h-.37a4.47,4.47,0,0,1-.14-1.15,5.32,5.32,0,0,1,.14-1.22,16.53,16.53,0,0,1,2-.13h.44a2.46,2.46,0,0,1,1.91.76A3,3,0,0,1,121.48,95.79Zm-4.3-7.41a3.55,3.55,0,0,1,.27-1.45,3.73,3.73,0,0,1,1.86-.41,3,3,0,0,1,1.73.41,4,4,0,0,1,0,2.91,3.06,3.06,0,0,1-1.76.41,3.41,3.41,0,0,1-1.83-.41A3.55,3.55,0,0,1,117.18,88.38Z"/><path class="cls-1" d="M138.46,103.43l1.18,2.84a6.3,6.3,0,0,0,1.62,2.64,2.67,2.67,0,0,1-2.2,1,1.69,1.69,0,0,1-1.27-.44,5,5,0,0,1-.86-1.49l-1.42-3.35a4.76,4.76,0,0,0-1.17-1.83,2.47,2.47,0,0,0-1.59-.47,15.62,15.62,0,0,0-1.84.1v7.24a7.23,7.23,0,0,1-1.57.14,8.23,8.23,0,0,1-1.64-.14V85l.24-.2h1.22a1.65,1.65,0,0,1,1.39.49,2.7,2.7,0,0,1,.37,1.61V99.71l1.22-.07a1,1,0,0,0,.81-.51l3.11-4.8a3.5,3.5,0,0,1,.91-1.08,2.48,2.48,0,0,1,1.44-.34q1,0,1.57,0l.2.27-3.82,6a5,5,0,0,1-1,1.22A4.82,4.82,0,0,1,138.46,103.43Z"/><path class="cls-1" d="M144.52,94.53a2.75,2.75,0,0,1,1.22-1.76,3.94,3.94,0,0,1,2.94,3,4.62,4.62,0,0,1,4.43-3,8.4,8.4,0,0,1,1.76.2,5.72,5.72,0,0,1-.78,3.08l-1.35-.13q-2.37,0-3.72,2.64v11.13a10,10,0,0,1-3.28,0V98A4.53,4.53,0,0,0,144.52,94.53Z"/><path class="cls-1" d="M162.88,95.79v13.9a9.78,9.78,0,0,1-3.25,0V97.14a2.14,2.14,0,0,0-.32-1.32,1.37,1.37,0,0,0-1.13-.41h-.37a4.47,4.47,0,0,1-.14-1.15,5.32,5.32,0,0,1,.14-1.22,16.53,16.53,0,0,1,2-.13h.44a2.46,2.46,0,0,1,1.91.76A3,3,0,0,1,162.88,95.79Zm-4.3-7.41a3.55,3.55,0,0,1,.27-1.45,3.73,3.73,0,0,1,1.86-.41,3,3,0,0,1,1.73.41,4,4,0,0,1,0,2.91,3.06,3.06,0,0,1-1.76.41,3.41,3.41,0,0,1-1.83-.41A3.55,3.55,0,0,1,158.59,88.38Z"/><path class="cls-1" d="M182.3,98.19v8a6.84,6.84,0,0,0,.51,3,3.06,3.06,0,0,1-2,.71q-1.76,0-1.76-2.1V99a5.34,5.34,0,0,0-.46-2.59,1.74,1.74,0,0,0-1.62-.76,5.41,5.41,0,0,0-2.4.61,7.35,7.35,0,0,0-2.15,1.59v11.81a7.42,7.42,0,0,1-1.61.14,8.44,8.44,0,0,1-1.67-.14V93.08l.24-.2h1.22q1.73,0,1.83,2.13a8,8,0,0,1,5.45-2.3,3.88,3.88,0,0,1,3.37,1.52A6.61,6.61,0,0,1,182.3,98.19Z"/><path class="cls-1" d="M193,110a4.74,4.74,0,0,1-4.19-2.32,11.73,11.73,0,0,1-1.51-6.43,9.68,9.68,0,0,1,1.91-6.39,5.75,5.75,0,0,1,4.53-2.28,6.83,6.83,0,0,1,4.65,1.79,3.21,3.21,0,0,1,2.17-1.59,2.63,2.63,0,0,1,1.28,1.69q-.95.85-.95,3.28V107.9q0,5.11-1.59,7-1.8,2.2-5.51,2.2A15.34,15.34,0,0,1,188,116a3.61,3.61,0,0,1,.88-2.5,10.51,10.51,0,0,0,4.63,1.08,3.78,3.78,0,0,0,3.32-1.3,6.13,6.13,0,0,0,.91-3.57v-1.66A6.76,6.76,0,0,1,193,110Zm4.75-4.91V96.83a5.24,5.24,0,0,0-3.45-1.59,3.06,3.06,0,0,0-2.69,1.56,8.48,8.48,0,0,0-1,4.55,8.71,8.71,0,0,0,.88,4.43,2.6,2.6,0,0,0,2.27,1.44A5,5,0,0,0,197.73,105.09Z"/><path class="cls-1" d="M205.47,108.44a3.41,3.41,0,0,1,.36-1.25,3.07,3.07,0,0,1,.76-1,10.08,10.08,0,0,0,4.48,1.52,4.29,4.29,0,0,0,2.55-.63,2,2,0,0,0,.88-1.61q0-1.56-2.2-2.4l-1.89-.74q-4.33-1.62-4.33-4.77a4.37,4.37,0,0,1,1.68-3.6,6.83,6.83,0,0,1,4.4-1.34,12.53,12.53,0,0,1,5.29,1.18,3.18,3.18,0,0,1-.25,1.35,2.73,2.73,0,0,1-.73,1.08,11.35,11.35,0,0,0-4.5-1.08,2.94,2.94,0,0,0-1.86.56,1.72,1.72,0,0,0-.71,1.4,1.74,1.74,0,0,0,.52,1.34,5.23,5.23,0,0,0,1.68.93l2,.74q4.26,1.66,4.26,5.07a4.32,4.32,0,0,1-1.78,3.62,7.74,7.74,0,0,1-4.8,1.35A11.15,11.15,0,0,1,205.47,108.44Z"/><path class="cls-1" d="M235.51,108.23a2.64,2.64,0,0,1-1.28,1.69,3.31,3.31,0,0,1-2.57-2.17,7.18,7.18,0,0,1-5,2.37,4.83,4.83,0,0,1-3.84-1.49,5.13,5.13,0,0,1-1.3-3.49,5,5,0,0,1,1.77-4.18,7.34,7.34,0,0,1,4.69-1.4,23.13,23.13,0,0,1,3.35.24V98.42q0-3.08-2.84-3.08a14.59,14.59,0,0,0-5.38,1.32,3.52,3.52,0,0,1-1-2.44,17.21,17.21,0,0,1,6.93-1.56,5.5,5.5,0,0,1,4,1.42,5.69,5.69,0,0,1,1.44,4.23v6.93A3.8,3.8,0,0,0,235.51,108.23Zm-8.32-.74a5.46,5.46,0,0,0,4.16-2.2V102a24.34,24.34,0,0,0-3-.17,3.72,3.72,0,0,0-2.6.81,2.73,2.73,0,0,0-.88,2.1,2.92,2.92,0,0,0,.63,2A2.2,2.2,0,0,0,227.19,107.49Z"/><path class="cls-1" d="M245.24,110a4.74,4.74,0,0,1-4.19-2.32,11.73,11.73,0,0,1-1.5-6.43,9.68,9.68,0,0,1,1.91-6.39A5.75,5.75,0,0,1,246,92.57a6.83,6.83,0,0,1,4.65,1.79,3.21,3.21,0,0,1,2.17-1.59,2.64,2.64,0,0,1,1.28,1.69q-.95.85-.95,3.28V107.9q0,5.11-1.59,7-1.79,2.2-5.51,2.2a15.35,15.35,0,0,1-5.78-1.12,3.6,3.6,0,0,1,.88-2.5,10.51,10.51,0,0,0,4.63,1.08,3.78,3.78,0,0,0,3.31-1.3,6.13,6.13,0,0,0,.91-3.57v-1.66A6.76,6.76,0,0,1,245.24,110Zm4.75-4.91V96.83a5.24,5.24,0,0,0-3.45-1.59,3.06,3.06,0,0,0-2.69,1.56,8.49,8.49,0,0,0-1,4.55,8.69,8.69,0,0,0,.88,4.43,2.6,2.6,0,0,0,2.27,1.44A5,5,0,0,0,250,105.09Z"/><path class="cls-1" d="M271.64,102.38h-10a7,7,0,0,0,1,3.72,3.44,3.44,0,0,0,3,1.32,10.43,10.43,0,0,0,4.7-1.32,3.61,3.61,0,0,1,1,2.13,10.78,10.78,0,0,1-6.34,1.89q-3.64,0-5.24-2.44a11.32,11.32,0,0,1-1.61-6.34A10.37,10.37,0,0,1,260,95a6,6,0,0,1,5.07-2.44,6.27,6.27,0,0,1,5,2,7.69,7.69,0,0,1,1.76,5.19A14.14,14.14,0,0,1,271.64,102.38Zm-3.8-6.11A2.92,2.92,0,0,0,265.25,95a3,3,0,0,0-2.64,1.3,6.85,6.85,0,0,0-1,3.67h7.1v-.44A5.7,5.7,0,0,0,267.84,96.28Z"/><path class="cls-1" d="M290.35,98.19v8a6.85,6.85,0,0,0,.51,3,3.05,3.05,0,0,1-2,.71q-1.76,0-1.76-2.1V99a5.33,5.33,0,0,0-.46-2.59,1.74,1.74,0,0,0-1.62-.76,5.41,5.41,0,0,0-2.4.61,7.35,7.35,0,0,0-2.15,1.59v11.81a7.43,7.43,0,0,1-1.61.14,8.45,8.45,0,0,1-1.68-.14V93.08l.24-.2h1.22q1.72,0,1.83,2.13a8,8,0,0,1,5.45-2.3,3.87,3.87,0,0,1,3.36,1.52A6.6,6.6,0,0,1,290.35,98.19Z"/><path class="cls-1" d="M304.52,93a5.34,5.34,0,0,1,.14,1.23,4.91,4.91,0,0,1-.14,1.2l-4.23,0v10.39q0,1.45,1.39,1.45H304a3.58,3.58,0,0,1,.27,1.4,8,8,0,0,1,0,1,31.06,31.06,0,0,1-3.72.24q-3.45,0-3.45-3.32V95.38l-2.47,0a5,5,0,0,1-.13-1.2,5.42,5.42,0,0,1,.13-1.23l2.47,0V89.93a2.69,2.69,0,0,1,.37-1.62,1.68,1.68,0,0,1,1.39-.47h1.22l.2.2v5Z"/><path class="cls-1" d="M308.95,104.51v-8a6.7,6.7,0,0,0-.54-3,2.78,2.78,0,0,1,1.89-.68,1.81,1.81,0,0,1,1.51.51,2.62,2.62,0,0,1,.39,1.59v8.76a5.27,5.27,0,0,0,.47,2.6,1.76,1.76,0,0,0,1.64.78,5.31,5.31,0,0,0,2.39-.61,7.59,7.59,0,0,0,2.17-1.62V93a9.88,9.88,0,0,1,3.25,0v12q0,2.44.95,3.28a2.62,2.62,0,0,1-1.25,1.66,3.34,3.34,0,0,1-2.67-2.47,7.93,7.93,0,0,1-5.75,2.54,3.84,3.84,0,0,1-3.33-1.52A6.6,6.6,0,0,1,308.95,104.51Z"/><path class="cls-1" d="M327.52,94.53a2.76,2.76,0,0,1,1.22-1.76,3.94,3.94,0,0,1,2.94,3,4.62,4.62,0,0,1,4.43-3,8.4,8.4,0,0,1,1.76.2,5.72,5.72,0,0,1-.78,3.08l-1.35-.13q-2.37,0-3.72,2.64v11.13a10,10,0,0,1-3.28,0V98A4.53,4.53,0,0,0,327.52,94.53Z"/><path class="cls-2" d="M368.21,61.48,349.06,42.34l-1.47-1.73a13.89,13.89,0,0,1,20.6-18.39l0,0a13.91,13.91,0,0,1,19.64,0h0a13.91,13.91,0,0,1,.56,19h0l-.25.25-.32.33Zm0-12.39L376,41.25l0,0,5.64-5.61a5.12,5.12,0,1,0-7.25-7.25q-1.64,1.64-3,3.06l-3.13,3.34-3.2-3.28c-.58-.6-1.16-1.17-1.71-1.71l-.91-.9a5.12,5.12,0,0,0-7.25,7.25l1.64,1.61Z"/><path class="cls-2" d="M348.44,42.68"/></g></g></svg>